<?xml version="1.0" encoding="UTF-8"?>
<svg xmlns="http://www.w3.org/2000/svg" xmlns:xlink="http://www.w3.org/1999/xlink" viewBox="0 0 50 50" width="50px" height="50px">
<g id="surface4433654">
<path style=" stroke:none;fill-rule:nonzero;fill:rgb(19.215687%,20.392157%,29.411766%);fill-opacity:1;" d="M 24.964844 1.054688 C 24.753906 1.0625 24.550781 1.136719 24.386719 1.265625 L 1.386719 19.210938 C 0.949219 19.550781 0.871094 20.179688 1.210938 20.617188 C 1.550781 21.050781 2.179688 21.128906 2.617188 20.789062 L 4 19.710938 L 4 46 C 4 46.550781 4.449219 47 5 47 L 18.832031 47 C 18.941406 47.019531 19.050781 47.019531 19.160156 47 L 30.832031 47 C 30.941406 47.019531 31.050781 47.019531 31.160156 47 L 45 47 C 45.550781 47 46 46.550781 46 46 L 46 19.710938 L 47.386719 20.789062 C 47.667969 21.007812 48.042969 21.0625 48.375 20.925781 C 48.707031 20.792969 48.941406 20.492188 48.992188 20.136719 C 49.039062 19.785156 48.898438 19.429688 48.613281 19.210938 L 41 13.269531 L 41 6 L 35 6 L 35 8.585938 L 25.613281 1.265625 C 25.429688 1.121094 25.199219 1.046875 24.960938 1.054688 Z M 25 3.320312 L 44 18.148438 L 44 45 L 32 45 L 32 26 L 18 26 L 18 45 L 6 45 L 6 18.148438 Z M 37 8 L 39 8 L 39 11.707031 L 37 10.144531 Z M 20 28 L 30 28 L 30 45 L 20 45 Z M 20 28 "/>
</g>
</svg>
