<?xml version="1.0" encoding="UTF-8"?>
<svg xmlns="http://www.w3.org/2000/svg" xmlns:xlink="http://www.w3.org/1999/xlink" viewBox="0 0 100 100" width="100px" height="100px">
<g id="surface5413189">
<path style=" stroke:none;fill-rule:nonzero;fill:rgb(47.843137%,48.235294%,53.333336%);fill-opacity:1;" d="M 49.925781 2.109375 C 49.507812 2.125 49.101562 2.269531 48.769531 2.527344 L 2.769531 38.421875 C 1.898438 39.101562 1.742188 40.359375 2.421875 41.230469 C 3.101562 42.101562 4.359375 42.257812 5.230469 41.578125 L 8 39.417969 L 8 92 C 8 93.105469 8.894531 94 10 94 L 37.664062 94 C 37.878906 94.035156 38.101562 94.035156 38.316406 94 L 61.664062 94 C 61.878906 94.035156 62.101562 94.035156 62.316406 94 L 90 94 C 91.105469 94 92 93.105469 92 92 L 92 39.417969 L 94.769531 41.578125 C 95.332031 42.019531 96.089844 42.125 96.75 41.855469 C 97.414062 41.585938 97.882812 40.984375 97.980469 40.277344 C 98.082031 39.570312 97.792969 38.863281 97.230469 38.421875 L 82 26.539062 L 82 12 L 70 12 L 70 17.171875 L 51.230469 2.527344 C 50.859375 2.238281 50.394531 2.089844 49.925781 2.109375 Z M 50 6.644531 L 88 36.296875 L 88 90 L 64 90 L 64 52 L 36 52 L 36 90 L 12 90 L 12 36.296875 Z M 74 16 L 78 16 L 78 23.417969 L 74 20.292969 Z M 40 56 L 60 56 L 60 90 L 40 90 Z M 40 56 "/>
</g>
</svg>
